<?xml version="1.0" encoding="UTF-8"?>
<svg xmlns="http://www.w3.org/2000/svg" xmlns:xlink="http://www.w3.org/1999/xlink" width="30px" height="30px" viewBox="0 0 30 30" version="1.1">
<g id="surface1">
<path style=" stroke:none;fill-rule:nonzero;fill:rgb(0%,14.117647%,49.019608%);fill-opacity:1;" d="M 29.949219 15 C 29.949219 23.257812 23.257812 29.949219 15 29.949219 C 6.742188 29.949219 0.0507812 23.257812 0.0507812 15 C 0.0507812 6.742188 6.742188 0.0507812 15 0.0507812 C 23.257812 0.0507812 29.949219 6.742188 29.949219 15 Z M 29.949219 15 "/>
<path style=" stroke:none;fill-rule:nonzero;fill:rgb(100%,100%,100%);fill-opacity:1;" d="M 24.964844 15 C 24.964844 20.503906 20.503906 24.964844 15 24.964844 C 9.496094 24.964844 5.035156 20.503906 5.035156 15 C 5.035156 9.496094 9.496094 5.035156 15 5.035156 C 20.503906 5.035156 24.964844 9.496094 24.964844 15 Z M 24.964844 15 "/>
<path style=" stroke:none;fill-rule:nonzero;fill:rgb(80.784314%,6.666667%,14.901961%);fill-opacity:1;" d="M 19.984375 15 C 19.984375 17.753906 17.753906 19.984375 15 19.984375 C 12.246094 19.984375 10.015625 17.753906 10.015625 15 C 10.015625 12.246094 12.246094 10.015625 15 10.015625 C 17.753906 10.015625 19.984375 12.246094 19.984375 15 Z M 19.984375 15 "/>
</g>
</svg>
